<svg xmlns="http://www.w3.org/2000/svg" xmlns:xlink="http://www.w3.org/1999/xlink" width="264" zoomAndPan="magnify" viewBox="0 0 198 97.5" height="130" preserveAspectRatio="xMidYMid meet" version="1.0"><defs><clipPath id="f12dc8f039"><path d="M 59.554688 9.058594 L 138.648438 9.058594 L 138.648438 88 L 59.554688 88 Z M 59.554688 9.058594 " clip-rule="nonzero"/></clipPath></defs><g clip-path="url(#f12dc8f039)"><path fill="#0292b7" d="M 122.488281 33.695312 L 121.414062 34.765625 L 112.742188 26.097656 L 113.816406 25.023438 C 114.894531 23.945312 116.640625 23.945312 117.71875 25.023438 L 122.488281 29.792969 C 123.566406 30.871094 123.566406 32.617188 122.488281 33.695312 Z M 89.378906 66.804688 L 80.707031 58.132812 L 111.867188 26.972656 L 120.539062 35.644531 Z M 75.007812 72.503906 L 79.503906 59.335938 L 88.175781 68.007812 Z M 99.003906 9.058594 C 77.21875 9.058594 59.558594 26.722656 59.558594 48.507812 C 59.558594 70.292969 77.21875 87.953125 99.003906 87.953125 C 120.789062 87.953125 138.453125 70.292969 138.453125 48.507812 C 138.453125 26.722656 120.789062 9.058594 99.003906 9.058594 " fill-opacity="1" fill-rule="nonzero"/></g></svg>