<svg xmlns="http://www.w3.org/2000/svg" xmlns:xlink="http://www.w3.org/1999/xlink" width="264" zoomAndPan="magnify" viewBox="0 0 198 97.5" height="130" preserveAspectRatio="xMidYMid meet" version="1.0"><defs><clipPath id="2037bef424"><path d="M 61.945312 11.445312 L 136.054688 11.445312 L 136.054688 85.554688 L 61.945312 85.554688 Z M 61.945312 11.445312 " clip-rule="nonzero"/></clipPath><clipPath id="bebfbadc3b"><path d="M 99 11.445312 C 78.535156 11.445312 61.945312 28.035156 61.945312 48.5 C 61.945312 68.964844 78.535156 85.554688 99 85.554688 C 119.464844 85.554688 136.054688 68.964844 136.054688 48.5 C 136.054688 28.035156 119.464844 11.445312 99 11.445312 Z M 99 11.445312 " clip-rule="nonzero"/></clipPath><clipPath id="6948579bc3"><path d="M 79.144531 29 L 118.691406 29 L 118.691406 68.339844 L 79.144531 68.339844 Z M 79.144531 29 " clip-rule="nonzero"/></clipPath></defs><g clip-path="url(#2037bef424)"><g clip-path="url(#bebfbadc3b)"><path fill="#ed6815" d="M 61.945312 11.445312 L 136.054688 11.445312 L 136.054688 85.554688 L 61.945312 85.554688 Z M 61.945312 11.445312 " fill-opacity="1" fill-rule="nonzero"/></g></g><g clip-path="url(#6948579bc3)"><path fill="#ffffff" d="M 104.003906 48.675781 L 117.46875 35.207031 C 118.855469 33.820312 118.855469 31.589844 117.46875 30.203125 C 116.085938 28.820312 113.851562 28.820312 112.46875 30.203125 L 99 43.671875 L 85.53125 30.203125 C 84.148438 28.820312 81.914062 28.820312 80.527344 30.203125 C 79.144531 31.589844 79.144531 33.820312 80.527344 35.207031 L 93.996094 48.675781 L 80.527344 62.140625 C 79.144531 63.527344 79.144531 65.761719 80.527344 67.144531 C 81.222656 67.835938 82.125 68.175781 83.03125 68.175781 C 83.933594 68.175781 84.839844 67.835938 85.53125 67.144531 L 99 53.675781 L 112.46875 67.144531 C 113.160156 67.835938 114.0625 68.175781 114.96875 68.175781 C 115.871094 68.175781 116.777344 67.835938 117.46875 67.144531 C 118.855469 65.761719 118.855469 63.527344 117.46875 62.140625 Z M 104.003906 48.675781 " fill-opacity="1" fill-rule="nonzero"/></g></svg>